<?xml version="1.0" encoding="utf-8"?>
<!-- Generator: Adobe Illustrator 24.2.3, SVG Export Plug-In . SVG Version: 6.00 Build 0)  -->
<svg version="1.1" id="Layer_2" xmlns="http://www.w3.org/2000/svg" xmlns:xlink="http://www.w3.org/1999/xlink" x="0px" y="0px"
	 viewBox="0 0 612 792" style="enable-background:new 0 0 612 792;" xml:space="preserve">
<style type="text/css">
	.st0{opacity:0.46;fill:#707070;}
</style>
<path class="st0" d="M475,373c-1.2-13.85-7.44-27.61-7-31c-13.75-45.88-32.8-77.24-59-89c-4.04-1.39-12.04-4.46-18.74-3.85
	c-156.6,18.21-153.89,149.07-114.04,310.56l-16.74-2.23c-24.38-158.05-58.05-299.53,107.52-314.38c-6.91-2.49-18.1-4.66-26.87-4.97
	L337,223c-1.78-11.84-7.5-21.65-16.97-29.53c-12.72-13.32-35.44-1.95-39.07,6.14C265.33,223.89,267.85,260.03,267,265
	c-0.42,2.43-4.92,4.47-10,5c-10.77,0.95-21.82,5.23-24,7c-6.46,2.33-80,143-80,143s-3.2,3.7-3,11s7,36,7,36l-14,2v28
	c14.84,14.79,30.58,26.17,47.16,34.33l3.27-71.16l-10.23,0c-10.38-15.48-11.9-28.18-4.65-38.14l49.12-82.6v17.67
	c-6.93,3.31-6.6,12.4-1.49,25.3c-5.22,4.79-8.95,9.21-9.49,12.84c-9.37,58.16-8.05,99.06-8.88,143.45c2.38,0.82,4.78,1.61,7.2,2.31
	v12c-0.41,12.52,4.25,19.42,11,24l52,23c18.29,4.5,35.87,3.89,53,0l137-52c3.7-2.61,6.32-6.32,7-12v-47
	C493.26,464.66,485.67,420.04,475,373z M294.82,226.68c1.67-21.77,21.77-24.19,25.86-5.4l4.09,16.56l-32,9.49L294.82,226.68z
	 M314.51,354.92c6.41-42.95,109.77-59.97,131.38-19.96l11.53,27.16L306,388.17L314.51,354.92z M465.43,476.17
	c-10.17,40.5-73.42,48.04-143.81,50.05c-12.96-28.31-18.61-62.09-18.6-100.09l159.63-40.93
	C468.37,405.72,469.05,432.64,465.43,476.17z"/>
</svg>
