<?xml version="1.0" encoding="utf-8"?>
<!-- Generator: Adobe Illustrator 24.2.3, SVG Export Plug-In . SVG Version: 6.00 Build 0)  -->
<svg version="1.1" id="Layer_1" xmlns="http://www.w3.org/2000/svg" xmlns:xlink="http://www.w3.org/1999/xlink" x="0px" y="0px"
	 viewBox="0 0 612 792" style="enable-background:new 0 0 612 792;" xml:space="preserve">
<style type="text/css">
	.st0{fill:#717171;}
</style>
<g>
	<path class="st0" d="M265.56,325.61h-15.1c-2.7,0-4.91-2.21-4.91-4.91v-31.97c0-2.7,2.21-4.91,4.91-4.91h15.1
		c2.7,0,4.91,2.21,4.91,4.91v31.97C270.46,323.41,268.25,325.61,265.56,325.61z"/>
	<path class="st0" d="M368.37,325.61h-13.86c-3.04,0-5.53-2.49-5.53-5.53v-30.73c0-3.04,2.49-5.53,5.53-5.53h13.86
		c3.04,0,5.53,2.49,5.53,5.53v30.73C373.9,323.13,371.41,325.61,368.37,325.61z"/>
	<path class="st0" d="M399.46,304.39h-17.36v23.43c0,4.64-3.79,8.43-8.43,8.43h-24.44c-4.64,0-8.43-3.79-8.43-8.43v-23.43h-61.64
		v22.32c0,4.64-3.79,8.43-8.43,8.43h-24.44c-4.64,0-8.43-3.79-8.43-8.43v-22.32h-18.3c-12.95,0-23.54,10.59-23.54,23.54v118.34
		c0,12.95,10.59,23.54,23.54,23.54h179.9c12.95,0,23.54-10.59,23.54-23.54V327.93C423,314.98,412.4,304.39,399.46,304.39z
		 M247.96,452.02h-31.74v-25.35h31.74V452.02z M247.96,417.33h-31.74v-25.35h31.74V417.33z M247.96,382.64h-31.74v-25.35h31.74
		V382.64z M299.65,452.02h-31.74v-25.35h31.74V452.02z M299.65,417.33h-31.74v-25.35h31.74V417.33z M299.65,382.64h-31.74v-25.35
		h31.74V382.64z M351.34,452.02h-31.74v-25.35h31.74V452.02z M351.34,417.33h-31.74v-25.35h31.74V417.33z M351.34,382.64h-31.74
		v-25.35h31.74V382.64z M403.04,452.02H371.3v-25.35h31.74V452.02z M403.04,417.33H371.3v-25.35h31.74V417.33z M403.04,382.64H371.3
		v-25.35h31.74V382.64z"/>
</g>
</svg>
