<?xml version="1.0" encoding="utf-8"?>
<!-- Generator: Adobe Illustrator 24.2.3, SVG Export Plug-In . SVG Version: 6.00 Build 0)  -->
<svg version="1.1" id="Layer_1" xmlns="http://www.w3.org/2000/svg" xmlns:xlink="http://www.w3.org/1999/xlink" x="0px" y="0px"
	 viewBox="0 0 612 792" style="enable-background:new 0 0 612 792;" xml:space="preserve">
<style type="text/css">
	.st0{fill:#717171;}
</style>
<g>
	<g>
		<path class="st0" d="M360.57,397.18h32.65c-13.96-10.79-29.93-19.1-47.59-23.52v-11.48c17.94-8.67,31.8-24.38,37.93-43.57H244.54
			c6.13,19.18,19.98,34.89,37.93,43.57v11.48c-54.44,13.61-95.22,61.45-98.14,119.37h171.23V402.2
			C355.55,399.44,357.81,397.18,360.57,397.18z"/>
		<path class="st0" d="M378.5,303.52h8.04c0.22-2.28,0.5-4.54,0.5-6.89c0-40.31-32.68-72.99-72.99-72.99
			c-37.51,0-68.04,28.39-72.17,64.79h-44.26v15.08h43.93H378.5z"/>
	</g>
	<path class="st0" d="M446.64,497.74h-71.26c-2.42,0-4.4-1.98-4.4-4.4v-76.7c0-2.42,1.98-4.4,4.4-4.4h71.26c2.42,0,4.4,1.98,4.4,4.4
		v76.7C451.04,495.76,449.06,497.74,446.64,497.74z"/>
</g>
</svg>
