<?xml version="1.0" encoding="utf-8"?>
<!-- Generator: Adobe Illustrator 24.2.3, SVG Export Plug-In . SVG Version: 6.00 Build 0)  -->
<svg version="1.1" id="Layer_1" xmlns="http://www.w3.org/2000/svg" xmlns:xlink="http://www.w3.org/1999/xlink" x="0px" y="0px"
	 viewBox="0 0 612 792" style="enable-background:new 0 0 612 792;" xml:space="preserve">
<style type="text/css">
	.st0{fill:#707070;}
</style>
<g>
	<path class="st0" d="M447.26,220.13l-24.56,8.29v-8.29l-165.77,45.68c-3.91-25.67-22.66-26.04-56.37-17.3l-55.81,13.95
		c-4.17,1.95-5.94,5.07-5.02,9.49l57.49,221.58l7.81-2.79l4.47,17.34l89.02-46.37c-6.42-35.72,15.91-50.6,20.37-26.6l8.19-3.35
		l0.37,13.21l50.6-25.67c-7.81-43.53,16.74-38.14,17.12-20.09l7.26-3.72l0.56,10.98l54.33-28.47L447.26,220.13z M373.96,415.95
		l-40.56,20.47c-9.3-36.84-51.72-24.93-39.07,20.84l-80.37,40.56l-57.3-219.16c-0.99-4.76,0.81-7.45,5.21-8.19l52.84-15.63
		c14.26-3.96,30.26-4.71,32.49,6.08l2.86,19.96l190.88-54.7l10.79,148.46l-45.77,23.81C400.75,364.23,360.93,377.99,373.96,415.95z"
		/>
	<polygon class="st0" points="287.63,305.44 289.49,319.95 427.17,273.06 427.17,262.65 	"/>
	<polygon class="st0" points="294.33,337.04 296.14,353.81 430.14,299.62 430.14,287.58 	"/>
	<polygon class="st0" points="301.03,369.3 302.76,387.3 430.89,329.15 430.89,316.23 	"/>
	<path class="st0" d="M177.49,270.46l45.4-11.16c7.14-0.79,15.53-2.51,17.49,2.6l2.23,11.16c1.87,7.92-2.92,10.09-8.56,11.53
		l-51.35,13.02c-7.97,2.11-13.85,1.08-15.26-3.35l-3.35-11.53C163.3,276.72,168.08,272.49,177.49,270.46z"/>
	
		<ellipse transform="matrix(0.374 -0.9274 0.9274 0.374 -160.8288 426.4978)" class="st0" cx="235.53" cy="332.39" rx="21.79" ry="16.24"/>
	<path class="st0" d="M214.38,364.46l46.33-20.09c8.98-3.78,18.28-2.23,20.09,16.19l3.07,42.84c1.12,9.63-8.79,13.67-10.33,3.21
		l-3.91-29.02c-0.7-4.33-4.88-3.35-4.05,1.95l6.7,44.93L230,443.02l-5.02-41.44c0.42-7.12-5.58-8.37-4.47-0.7l3.77,35.86
		c0.7,7.53-11.58,11.72-12.84,1.67l-7.12-54.56C203.63,374.65,208.39,368.46,214.38,364.46z"/>
</g>
</svg>
