<?xml version="1.0" encoding="utf-8"?>
<!-- Generator: Adobe Illustrator 24.2.3, SVG Export Plug-In . SVG Version: 6.00 Build 0)  -->
<svg version="1.1" id="Layer_1" xmlns="http://www.w3.org/2000/svg" xmlns:xlink="http://www.w3.org/1999/xlink" x="0px" y="0px"
	 viewBox="0 0 612 792" style="enable-background:new 0 0 612 792;" xml:space="preserve">
<style type="text/css">
	.st0{fill:#717171;}
</style>
<path class="st0" d="M306,290.41c-51.97,0-94.1,42.13-94.1,94.1c0,51.97,42.13,94.1,94.1,94.1c51.97,0,94.1-42.13,94.1-94.1
	C400.1,332.54,357.97,290.41,306,290.41z M316.26,457.18v-22.76h-20.52v23c-32.78-4.23-58.74-29.98-63.31-62.65h21.88v-20.52h-21.88
	c4.57-32.67,30.53-58.42,63.31-62.65v21.14h20.52v-20.9c32.04,4.83,57.25,30.26,61.74,62.41h-21.74v20.52h21.74
	C373.51,426.92,348.3,452.35,316.26,457.18z"/>
</svg>
