<?xml version="1.0" encoding="utf-8"?>
<!-- Generator: Adobe Illustrator 24.2.3, SVG Export Plug-In . SVG Version: 6.00 Build 0)  -->
<svg version="1.1" id="Layer_1" xmlns="http://www.w3.org/2000/svg" xmlns:xlink="http://www.w3.org/1999/xlink" x="0px" y="0px"
	 viewBox="0 0 612 792" style="enable-background:new 0 0 612 792;" xml:space="preserve">
<style type="text/css">
	.st0{fill:#717171;}
</style>
<g>
	<path class="st0" d="M328.88,407.52c-3.8-1.67-7.81-3.25-12.3-4.6l0.42-0.12c0,0-5.97-11.85-1.53-27.03
		c9.23-5.83,15.41-15.91,15.47-27.39c0.32-2.06,0.54-4.16,0.54-6.33c0-1.96-0.26-3.84-0.53-5.72V332c0-18.05-15.1-32.82-33.55-32.82
		h-0.87c-18.45,0-33.55,14.77-33.55,32.82v4.33c-0.26,1.88-0.53,3.76-0.53,5.72c0,2.15,0.22,4.24,0.54,6.29
		c0.04,11.78,6.57,22.06,16.2,27.82c4.22,14.99-1.65,26.64-1.65,26.64l0.12,0.03c-4.59,1.38-8.7,2.98-12.57,4.68
		c-42.26,6.93-42.55,44.1-42.55,44.1h74.43h74.43C371.4,451.61,371.11,414.46,328.88,407.52z"/>
	<g>
		<path class="st0" d="M241.84,409.41c-0.32-3.06-0.22-6.8,0.98-10.91c6.44-4.07,10.75-11.1,10.79-19.1
			c0.22-1.44,0.38-2.91,0.38-4.41c0-1.37-0.18-2.68-0.37-3.99v-3.02c0-12.59-10.53-22.89-23.4-22.89h-0.61
			c-12.87,0-23.4,10.3-23.4,22.89v3.02c-0.18,1.31-0.37,2.62-0.37,3.99c0,1.5,0.15,2.96,0.37,4.39c0.03,8.22,4.58,15.38,11.3,19.4
			c2.94,10.45-1.15,18.58-1.15,18.58l0.08,0.02c-3.2,0.96-6.07,2.08-8.77,3.27C178.2,425.48,178,451.4,178,451.4h37.05
			C215.05,451.4,215.35,423.39,241.84,409.41z"/>
		<path class="st0" d="M385.68,420.64c-2.65-1.16-5.45-2.26-8.58-3.21l0.3-0.08c0,0-4.16-8.27-1.07-18.85
			c6.44-4.07,10.75-11.1,10.79-19.1c0.22-1.44,0.38-2.91,0.38-4.41c0-1.37-0.18-2.68-0.37-3.99v-3.02
			c0-12.59-10.53-22.89-23.4-22.89h-0.61c-12.87,0-23.4,10.3-23.4,22.89v3.02c-0.18,1.31-0.37,2.62-0.37,3.99
			c0,1.5,0.15,2.96,0.37,4.39c0.03,8.22,4.58,15.38,11.3,19.4c1.12,3.97,1.22,7.59,0.92,10.57c26.64,13.95,26.95,42.06,26.95,42.06
			h36.44C415.34,451.4,415.14,425.49,385.68,420.64z"/>
	</g>
</g>
</svg>
